<svg xmlns="http://www.w3.org/2000/svg" viewBox="0 0 145 41.83">
  <defs>
    <style>
      .cls-1, .cls-2 {
        fill: #2e38bf;
      }

      .cls-2 {
        fill-rule: evenodd;
      }
    </style>
  </defs>
  <title>LoadView Alt Logo</title>
  <g id="Layer_2" data-name="Layer 2">
    <g id="Layer_1-2" data-name="Layer 1">
      <g id="Approved">
        <g id="Logos">
          <g id="Logo-loadview">
            <path id="by-dotcom-monitor" class="cls-1" d="M144,34.5a1.5,1.5,0,0,0-1.5,1.5v3H141V36a3,3,0,0,1,3-3Zm-6.5,3A1.5,1.5,0,1,0,136,36,1.5,1.5,0,0,0,137.5,37.5Zm0,1.5a3,3,0,1,1,3-3A3,3,0,0,1,137.5,39Zm-5.63-.87A2.9,2.9,0,0,1,131,36V30h1.5v3H134v1.5h-1.5V36a1.43,1.43,0,0,0,.45,1,1.44,1.44,0,0,0,1.05.45V39A2.86,2.86,0,0,1,131.87,38.13Zm-1.37-6.64a1,1,0,0,1-.29.72,1,1,0,0,1-.7.29,1,1,0,0,1-1-1,1,1,0,0,1,.29-.7,1,1,0,0,1,.72-.29,1,1,0,0,1,1,1ZM130.36,39h-1.71V33h1.71ZM128,39h-1.5V36a1.5,1.5,0,0,0-3,0v3H122V36a3,3,0,0,1,6,0Zm-9.5-1.5A1.5,1.5,0,1,0,117,36,1.5,1.5,0,0,0,118.5,37.5Zm0,1.5a3,3,0,1,1,3-3A3,3,0,0,1,118.5,39ZM115,39h-1.5V35.88a1.38,1.38,0,1,0-2.75,0V39h-1.5V35.88a1.38,1.38,0,1,0-2.75,0V39H105V36a3,3,0,0,1,5-2.24A3,3,0,0,1,115,36Zm-13-3h2v1h-2Zm-1,3H99.5V35.88a1.38,1.38,0,1,0-2.75,0V39h-1.5V35.88a1.38,1.38,0,1,0-2.75,0V39H91V36a3,3,0,0,1,5-2.24A3,3,0,0,1,101,36ZM87.5,37.5A1.5,1.5,0,1,0,86,36,1.5,1.5,0,0,0,87.5,37.5Zm0,1.5a3,3,0,1,1,3-3A3,3,0,0,1,87.5,39Zm-3.7-4a1.61,1.61,0,0,0-1.17-.51,1.5,1.5,0,1,0,0,3A1.61,1.61,0,0,0,83.8,37a3.81,3.81,0,0,0,.7,1.41,3.16,3.16,0,0,1-1.87.6,3,3,0,1,1,0-6,3.16,3.16,0,0,1,1.87.6A3.81,3.81,0,0,0,83.8,35Zm-6.93,3.12A2.9,2.9,0,0,1,76,36V30h1.5v3H79v1.5H77.5V36a1.43,1.43,0,0,0,.45,1,1.44,1.44,0,0,0,1,.45V39A2.86,2.86,0,0,1,76.87,38.13ZM72.5,37.5A1.5,1.5,0,1,0,71,36,1.5,1.5,0,0,0,72.5,37.5Zm0,1.5a3,3,0,1,1,3-3A3,3,0,0,1,72.5,39ZM66,37.5A1.5,1.5,0,1,0,64.5,36,1.5,1.5,0,0,0,66,37.5Zm1.5-4.1V30H69v6a3,3,0,1,1-1.5-2.6ZM50,37.5A1.5,1.5,0,1,0,48.5,36,1.5,1.5,0,0,0,50,37.5Zm-1.5-4.1A3,3,0,1,1,47,36V30h1.5v3.4Zm11,5.46a3,3,0,0,1-3,3v-1.5a1.47,1.47,0,0,0,1-.43,1.42,1.42,0,0,0,.43-1v-.27a3,3,0,0,1-1.48.39,3,3,0,0,1-3-3V33H55v3a1.43,1.43,0,0,0,.43,1,1.39,1.39,0,0,0,1,.43A1.47,1.47,0,0,0,58,36V33h1.51Z"/>
            <path id="view" class="cls-2" d="M89,26V8h4V26ZM91,6.5A2.5,2.5,0,1,1,93.5,4,2.5,2.5,0,0,1,91,6.5Zm17.81,18.11A9,9,0,1,1,113,17a9.29,9.29,0,0,1-.12,1.5H99.23a5,5,0,0,0,8,2.28l.26-.24,2.82,2.82A9.33,9.33,0,0,1,108.81,24.61ZM99.42,15h9.16a5,5,0,0,0-9.16,0ZM145,8v9.5A8.5,8.5,0,0,1,130,23a8.5,8.5,0,0,1-15-5.48V8h4v9.5a4.5,4.5,0,0,0,9,0V8h4v9.5a4.5,4.5,0,0,0,9,0V8ZM74.45,8l4.21,8.74L82.82,8h4.43L78.68,26,70,8Z"/>
            <path id="load" class="cls-2" d="M44,26V24a6.78,6.78,0,0,1-5,2h0a9,9,0,1,1,9-9v9ZM9,22v4a9,9,0,0,1-9-9V0H4V17A5,5,0,0,0,9,22Zm10,4a9,9,0,1,1,9-9A9,9,0,0,1,19,26Zm0-4a5,5,0,1,0-5-5A5,5,0,0,0,19,22Zm20,0a5,5,0,1,0-5-5A5,5,0,0,0,39,22Zm29-5a9,9,0,1,1-4-7.48V0h4Zm-9,5a5,5,0,1,0-5-5A5,5,0,0,0,59,22Z"/>
          </g>
        </g>
      </g>
    </g>
  </g>
</svg>
