<?xml version="1.0" encoding="UTF-8"?>
<svg xmlns="http://www.w3.org/2000/svg" xmlns:xlink="http://www.w3.org/1999/xlink" viewBox="120 620 1260 260">
  <defs>
    <style>
      .cls-1 {
        fill: #0491e0;
      }

      .cls-2 {
        fill: #3a4550;
      }

      .cls-3 {
        fill: url(#linear-gradient);
      }
    </style>
    <linearGradient id="linear-gradient" x1="1130.46" y1="813.3" x2="1130.46" y2="668.44" gradientUnits="userSpaceOnUse">
      <stop offset="0" stop-color="#008bdb"/>
      <stop offset="1" stop-color="#009be7"/>
    </linearGradient>
  </defs>
  <g id="Layer_1" data-name="Layer 1">
    <g>
      <path class="cls-2" d="M485.53,767.83c0,26.63-20.39,44.52-54.31,44.52s-50.83-12.9-56.73-42.05h25.7c5.76,15.82,14.94,21.22,31.86,21.22s27.56-8.44,27.56-21.66c0-10.98-7.37-15.34-23.15-18.19l-18.24-3.16c-26.55-4.78-40.48-17.58-40.48-39.64,0-24.4,18.24-42.9,52.35-42.9,30.18,0,46.22,13.36,52.64,40.62h-27.71c-4.29-13-11.29-19.77-25.02-19.77-16.5,0-26.24,8.03-26.24,20.33,0,9.96,6.25,16.57,22.65,19.31l18.24,3.04c25.83,4.38,40.89,15.56,40.89,38.33Z"/>
      <path class="cls-2" d="M602.52,703.31l-58.71,145.05h-26.72l16.94-39.38-43.66-105.67h28.41l29.36,76.23h.21l28.41-76.23h25.78Z"/>
      <path class="cls-2" d="M614.01,703.26h26l.35,15.75c5.98-10.74,14.08-18.77,32.12-18.77,24.72,0,36.28,15.66,36.28,39.86v69.49h-25.33v-63.46c0-15.66-6.08-23.7-19.66-23.7-15.1,0-24.42,11.65-24.42,30.93v56.23h-25.33v-106.34Z"/>
      <path class="cls-2" d="M790,724.42v-20.07h-30.42v-28.43h-24.52l.1,28.43h-18.77v20.07h18.77v53.08c0,22.45,10.19,33.7,33.21,33.7,7.61,0,17.12-.95,22.26-2.55l.03-21.54c-3.21,1.89-5.88,2.71-15.05,2.71-10.87,0-16.03-8.55-16.03-16.6v-48.8h30.42Z"/>
      <path class="cls-2" d="M863.22,701.36c-18.05,0-27.07,9.25-32.95,19.88h-.21v-56.98h-25.34v145.34h25.34v-55.67c0-19.08,9.34-30.61,24.44-30.61,13.59,0,19.67,7.95,19.67,23.46v62.82h25.35v-68.78c0-23.95-11.56-39.46-36.3-39.46Z"/>
    </g>
  </g>
  <g id="Layer_2" data-name="Layer 2">
    <path class="cls-3" d="M1334.63,715.93c-10.2-10.54-23.27-15.89-38.84-15.89s-28.64,5.35-38.84,15.89c-10.06,10.4-15.16,24.11-15.16,40.74s5.1,30.34,15.16,40.74c10.2,10.54,23.27,15.89,38.84,15.89s28.64-5.35,38.84-15.89c10.2-10.54,15.37-24.24,15.37-40.74s-5.17-30.2-15.37-40.74ZM1317.67,781.49c-5.45,6.46-12.74,9.74-21.67,9.74s-16.15-3.19-21.89-9.75c-5.61-6.42-8.46-14.77-8.46-24.81s2.85-18.39,8.46-24.81c5.73-6.56,12.89-9.75,21.88-9.75s16.23,3.28,21.68,9.75c5.61,6.42,8.46,14.77,8.46,24.81s-2.85,18.39-8.47,24.82ZM1124.3,703.53h25.86v106.34h-26.54l-.35-15.75c-6.1,10.74-14.38,18.77-32.79,18.77-25.24,0-37.03-15.66-37.03-39.86v-69.49h25.86v63.46c0,15.66,6.21,23.7,20.07,23.7,15.41,0,24.93-11.65,24.93-30.93v-56.23ZM1218.96,789.82c9.17,0,11.84-.82,15.05-2.71l-.03,21.54c-5.13,1.6-14.65,2.55-22.26,2.55-23.02,0-33.21-11.25-33.21-33.7v-53.08h-18.77v-20.07h18.77l-.1-28.43h24.52v28.43h30.42v20.07h-30.42v48.8c0,8.05,5.17,16.6,16.03,16.6ZM962.51,668.44l-51.58,142.09h28.48l10.98-31.79h57.39l10.35,31.79h28.97l-52.57-142.09h-32.01ZM957.3,754.95l21.51-59.54h.2l20.81,59.54h-42.51Z"/>
  </g>
  <g id="Layer_3" data-name="Layer 3">
    <path class="cls-1" d="M244.53,651.63c-52.12,0-94.53,42.41-94.53,94.53s42.41,94.53,94.53,94.53,94.53-42.41,94.53-94.53-42.41-94.53-94.53-94.53ZM324.15,732.29c-17.39,0-25.59,13.77-31.62,23.88-4.97,8.34-8.34,13.45-13.17,14.04-9.15,1.15-16.47-9.74-18.24-20.93-3.29-20.69-13.74-33.04-27.97-33.04-13.27,0-18.38,8.16-27.68,23.01-1.31,2.09-2.73,4.36-4.3,6.82-8.1,12.67-30.09,10.61-37.26,9.56-.38-3.25-.57-6.44-.57-9.48,0-44.77,36.43-81.2,81.2-81.2,39.71,0,73.25,28.27,79.99,67.32-.13,0-.25,0-.37,0ZM212.4,753.26c1.61-2.51,3.06-4.83,4.39-6.96,8.89-14.2,10.91-16.73,16.36-16.73,10.52,0,13.99,16.68,14.8,21.8,2.55,16.03,13.66,32.26,29.96,32.26h0c1.02,0,2.05-.06,3.08-.19,11.65-1.44,17.67-11.54,22.98-20.45,6.7-11.25,11.35-18.11,21.75-17.32,0,.16,0,.32,0,.49,0,44.77-36.43,81.2-81.2,81.2-35.68,0-67.56-23.8-77.78-57.96,12.82,1.15,35.07.42,45.65-16.14Z"/>
  </g>
</svg>